<svg t="1605340348738" class="icon" viewBox="0 0 1024 1024" version="1.1" xmlns="http://www.w3.org/2000/svg" p-id="2999" width="32" height="32"><path d="M327.23 1022.75c-65.16-142.24-30.66-224.44 20.44-298.11a497.8 497.8 0 0 0 68.57-170.35 195.91 195.91 0 0 1 27.26 149.48 405 405 0 0 0 78.78-284.91 503.82 503.82 0 0 1 146.93 596.23C1193.89 705.9 799.1 239.14 731 189.31c23.85 53.24 27.26 142.24-20.44 185.26C631.73 61.12 436.68 0.65 436.68 0.65c23.85 160.13-82.19 334.74-184.83 468.46a349.56 349.56 0 0 0-42.59-170.35c-5.1 115-90.71 207.41-114.55 325-31.09 160.55 23.84 274.26 232.52 399z m0 0" p-id="3000" fill="#d81e06"></path></svg>