<svg t="1604909609129" class="icon" viewBox="0 0 1024 1024" version="1.1" xmlns="http://www.w3.org/2000/svg" p-id="2179" width="200" height="200"><path d="M514.4064 404.224m-342.4768 0a342.4768 342.4768 0 1 0 684.9536 0 342.4768 342.4768 0 1 0-684.9536 0Z" fill="#CCDAFF" p-id="2180"></path><path d="M539.6992 221.952l36.7616 74.496c4.096 8.3456 12.0832 14.1312 21.248 15.4624l82.2272 11.9296c23.1424 3.3792 32.4096 31.8464 15.6672 48.1792l-59.4944 57.9584a28.3392 28.3392 0 0 0-8.1408 24.9856l14.0288 81.8688c3.9424 23.0912-20.2752 40.6528-40.96 29.7472l-73.5232-38.656a28.34944 28.34944 0 0 0-26.2656 0l-73.5232 38.656c-20.736 10.9056-44.9024-6.7072-40.96-29.7472l14.0288-81.8688c1.5872-9.1648-1.4848-18.4832-8.1408-24.9856L333.2096 372.0192c-16.7424-16.3328-7.5264-44.8 15.6672-48.1792l82.2272-11.9296c9.216-1.3312 17.152-7.1168 21.248-15.4624l36.7616-74.496c10.3424-20.992 40.2432-20.992 50.5856 0zM85.6576 796.0064l83.7632-144.8448c6.2976-10.8544 21.2992-12.4416 29.696-3.1744 31.6416 34.9184 106.8544 107.264 209.664 137.5744 11.264 3.328 16.4864 16.4352 10.8544 26.7776-28.928 53.4528-56.6272 103.8336-71.9872 131.6864-6.0928 11.0592-21.1968 12.8512-29.7984 3.584l-87.7568-95.0784c-2.6624-2.9184-6.1952-4.864-10.0864-5.632l-121.9072-23.5008c-12.4416-2.4064-18.8416-16.384-12.4416-27.392zM942.9504 796.0064l-83.7632-144.8448c-6.2976-10.8544-21.2992-12.4416-29.696-3.1744-31.6416 34.9184-106.8544 107.264-209.664 137.5744-11.264 3.328-16.4864 16.4352-10.8544 26.7776 28.928 53.4528 56.6272 103.8336 71.9872 131.6864 6.0928 11.0592 21.1968 12.8512 29.7984 3.584l87.7568-95.0784c2.6624-2.9184 6.1952-4.864 10.0864-5.632l121.9072-23.5008c12.4416-2.4064 18.8416-16.384 12.4416-27.392z" fill="#7A7AF9" p-id="2181"></path></svg>