<svg t="1605511776944" class="icon" viewBox="0 0 1025 1024" version="1.1" xmlns="http://www.w3.org/2000/svg" p-id="8803" width="25" height="25"><path d="M798.393108 303.379692 737.319385 303.379692 737.319385 322.158277 802.583631 321.795938 789.0944 309.878154Z" p-id="8804" fill="#e6e6e6"></path><path d="M608.976738 210.573785l82.400492 0 0 17.333169-82.400492 0 0-17.333169Z" p-id="8805" fill="#e6e6e6"></path><path d="M608.976738 254.629415l82.400492 0 0 17.333169-82.400492 0 0-17.333169Z" p-id="8806" fill="#e6e6e6"></path><path d="M943.537231 0 4.544985 0l1020.065477 1020.061538L1024.610462 105.649231C1024.610462 47.277292 988.341169 0 943.537231 0zM574.700308 450.351262l-42.295138-19.861662c12.402215-22.634338 22.976985-46.584123 31.724308-71.861169l45.2096 16.612431C597.188923 405.819077 585.641354 430.851938 574.700308 450.351262zM794.013538 443.671631c-9.231754 8.306215-23.764677 12.457354-43.5712 12.457354l-76.929969 0c-35.485538 0-53.232246-15.529354-53.232246-46.584123L620.280123 362.964677l48.128 0 0 34.304c0 12.032 6.447262 18.053908 19.322092 18.053908l47.399385 0c7.774523 0 14.584123-1.059446 20.416985-3.158646 5.832862-2.103138 9.570462-5.572923 11.2128-10.381785 1.642338-4.808862 3.7376-15.592369 6.289723-32.319015 9.728 5.777723 24.910769 13.000862 45.575877 21.665477C811.449108 417.851077 803.245292 435.365415 794.013538 443.671631zM855.0912 443.8528c-13.855508-25.032862-27.226585-46.584123-40.105354-64.638031l31.5392-16.612431-10.937108-10.472369-103.546092 1.984985c7.774523 9.026954 14.883446 17.876677 21.330708 26.541292l-36.462277 25.277046c-9.728-14.446277-20.783262-29.495138-33.1776-45.138708l9.298708-5.958892-155.502277 1.626585-2.567877-36.470154c47.151262 1.201231 99.288615 1.921969 156.416 2.166154L691.377231 303.379692l-127.610092 0L563.767138 179.156677l127.610092 0L691.377231 162.185846l-149.488246 0 0-36.111754 149.488246 0 0-22.027815 45.942154 0 0 22.027815 148.759631 0 0 36.111754L737.319385 162.185846l0 16.970831 128.342646 0L865.662031 303.379692l-33.543877 0c21.393723 15.643569 42.543262 31.893662 63.440738 48.750277l-30.444308 22.027815c11.055262 14.690462 21.330708 29.727508 30.810585 45.138708L855.0912 443.8528z" p-id="8807" fill="#e6e6e6"></path><path d="M737.319385 254.629415l83.129108 0 0 17.333169-83.129108 0 0-17.333169Z" p-id="8808" fill="#e6e6e6"></path><path d="M737.319385 210.573785l83.129108 0 0 17.333169-83.129108 0 0-17.333169Z" p-id="8809" fill="#e6e6e6"></path></svg>